<svg version="1.2" xmlns="http://www.w3.org/2000/svg" viewBox="0 0 60 57" width="60" height="57">
	<title>DentalRoom</title>
	<style>
		.s0 { fill: #f0c5bf } 
		.s1 { fill: #c15a53 } 
		.s2 { fill: #e29c91 } 
		.s3 { fill: #f4b7b8 } 
		.s4 { fill: #cc493b } 
		.s5 { fill: #d29694 } 
		.s6 { fill: #ce3628 } 
		.s7 { fill: #c65547 } 
		.s8 { fill: #cd736c } 
		.s9 { fill: #c8291c } 
		.s10 { fill: #e79c94 } 
		.s11 { fill: #cc7a72 } 
		.s12 { fill: #ce1f11 } 
		.s13 { fill: #131313 } 
		.s14 { fill: #dfaea7 } 
		.s15 { fill: #767676 } 
		.s16 { fill: #181818 } 
		.s17 { fill: #1b1b1b } 
		.s18 { fill: #1f1f20 } 
		.s19 { fill: #c15c50 } 
		.s20 { fill: #313131 } 
		.s21 { fill: #0a0a0a } 
		.s22 { fill: #e5aba3 } 
		.s23 { fill: #cd6c64 } 
		.s24 { fill: #979797 } 
		.s25 { fill: #bfbfbf } 
		.s26 { fill: #df7568 } 
		.s27 { fill: #c63224 } 
		.s28 { fill: #f0c3bc } 
		.s29 { fill: #1f1f1f } 
		.s30 { fill: #878787 } 
		.s31 { fill: #959595 } 
		.s32 { fill: #919191 } 
		.s33 { fill: #1a1a1a } 
		.s34 { fill: #727272 } 
		.s35 { fill: #0f0f0f } 
		.s36 { fill: #787878 } 
		.s37 { fill: #b1b1b1 } 
		.s38 { fill: #606060 } 
		.s39 { fill: #f1b6ad } 
		.s40 { fill: #ed968e } 
		.s41 { fill: #d0d0d0 } 
		.s42 { fill: #c1c1c1 } 
		.s43 { fill: #fcc1b8 } 
		.s44 { fill: #d37a6e } 
		.s45 { fill: #cd1d0f } 
		.s46 { fill: #838383 } 
		.s47 { fill: #b8b8b8 } 
		.s48 { fill: #c74332 } 
		.s49 { fill: #ffd6d4 } 
		.s50 { fill: #737373 } 
		.s51 { fill: #c53022 } 
		.s52 { fill: #939393 } 
		.s53 { fill: #bababa } 
		.s54 { fill: #e8a096 } 
		.s55 { fill: #e0a49d } 
		.s56 { fill: #8b8b8b } 
		.s57 { fill: #7c7c7c } 
		.s58 { fill: #e88c80 } 
		.s59 { fill: #595959 } 
		.s60 { fill: #ce918a } 
		.s61 { fill: #5a5a5a } 
		.s62 { fill: #efbdbd } 
		.s63 { fill: #a8a8a8 } 
		.s64 { fill: #cf6d62 } 
		.s65 { fill: #da7268 } 
	</style>
	<g>
		<path fill-rule="evenodd" class="s0" d="m36.5 1.5q-4.5 0.3-9 1 4.3-3 9-1z"/>
	</g>
	<g>
		<path fill-rule="evenodd" class="s1" d="m36.5 1.5q4.7 0.7 8 4-1.1 1.4-3 1-0.5 0-1 0-2.6-1.4-6-1 0-4.6-3-1.5 1.2 0.5 2 1.5-0.9 1.4-1 3-1.1-0.6-1.5-2-0.7 0.9-0.5 2-2.9-2.4-4.5 1-1.7-2.3-4.5-2 3-2.5 6-5 4.5-0.7 9-1z"/>
	</g>
	<g>
		<path fill-rule="evenodd" class="s2" d="m50.5 7.5q-1.3 0.9-3 1 2-1.7-0.5-2-1.5 0.5-1.5 2-1.3-1.6-2.5 0-1.1-0.8-1.5-2 1.9 0.4 3-1 3.7-1.7 6 2z"/>
	</g>
	<g>
		<path fill-rule="evenodd" class="s3" d="m40.5 6.5q-2.2-0.1-4 1-2-1.7-1 0-1.1 1.4-3 1 0.1-1.6 1-3-0.8-1-2-1.5 3-3.1 3 1.5 3.4-0.4 6 1z"/>
	</g>
	<g>
		<path fill-rule="evenodd" class="s4" d="m32.5 8.5q1.9 0.4 3-1 0.5 0 1 0 1.8-1.1 4-1 0.5 0 1 0 0.4 1.2 1.5 2 1.2-1.6 2.5 0 0.2 1.1-0.5 2-1.5-2-3 0-0.4 2.3-2 4-0.3-3.1-1.5-6-1.1 4.3-2 8.5 5.5 0.7 11 0.5 0 0.5 0 1-7.5-0.7-14 3 0-4.5 0-9-1.5 0-3 0 0-2 0-4-0.2-1.1 0.5-2 0.4 1.4 1.5 2z"/>
	</g>
	<g>
		<path fill-rule="evenodd" class="s5" d="m50.5 7.5q2 1 3.5 0 2.7 2 3 4 1.4-0.6 2-2 2.9 2.8-0.5 5-0.9-3.2-3.5-1-3.2-0.8-1.5-3-0.5-1.8-1.5 0-0.8-1.5-1.5-3z"/>
	</g>
	<g>
		<path fill-rule="evenodd" class="s6" d="m21.5 7.5q0.6 2.1 3 2.5-1.2 1.4-3 2 2.8 1.7 5.5 0.5 1.5 1.3 2.5 3-2.7-0.7-6 0 1.8 3-2 4 1.7 1.7 2 4-1.4-0.7-2.5-2 1.9 9.3-4.5 3-1 0-1-1-0.9-1-2-2 0.2-0.9 1-1 0.8-0.1 1-1-1.9-1.2-3-3 4.6-0.2 3-4 1.9-1.2 3-3 1.2-1.4 3-2z"/>
	</g>
	<g>
		<path fill-rule="evenodd" class="s7" d="m50.5 7.5q0.7 1.5 1.5 3 1-1.8 1.5 0-1.7 2.2 1.5 3 2.6-2.2 3.5 1-4 2.6-9 3 1.7-1.1 3-3-1.2-1.3-3-1 0.2-3.1-2-5 1.7-0.1 3-1z"/>
	</g>
	<g>
		<path fill-rule="evenodd" class="s8" d="m18.5 9.5q-1.1 1.8-3 3 1.6 3.8-3 4 0-1-1-1-1.5 1-3 2-0.9-0.2-1-1 0.2-2.4 2-4 4.3-2.2 9-3z"/>
	</g>
	<g>
		<path fill-rule="evenodd" class="s9" d="m47.5 8.5q2.2 1.9 2 5 1.8-0.3 3 1-1.3 1.9-3 3-1 0-2 0-5.5 0.2-11-0.5 0.9-4.2 2-8.5 1.2 2.9 1.5 6 1.6-1.7 2-4 1.5-2 3 0 0.7-0.9 0.5-2 0-1.5 1.5-2 2.5 0.3 0.5 2z"/>
	</g>
	<g>
		<path fill-rule="evenodd" class="s10" d="m11.5 15.5q1 0 1 1 1.1 1.8 3 3-0.2 0.9-1 1-1-1.9-2.5 0 0.5 2.3-0.5 4-1.8-2.4-5-2.5 2.5-1.5 5-3-2.5 1.2-5-0.5-0.3-1.5 1-2 0.1 0.8 1 1 1.5-1 3-2z"/>
	</g>
	<g>
		<path fill-rule="evenodd" class="s11" d="m47.5 18.5q0-0.5 0-1 1 0 2 0 5.2 0.4 11 0.5 2.1 2.2-1 2.5-2.3-1.3-4 0-4.4-1.3-9 0 0.6-1.1 2-1.5-0.3-0.6-1-0.5z"/>
	</g>
	<g>
		<path fill-rule="evenodd" class="s12" d="m21.5 7.5q2.8-0.3 4.5 2 1.6-3.4 4.5-1 0 2 0 4 1.5 0 3 0 0 4.5 0 9-4.3 1.7-9 3-0.9-0.2-1-1-0.3-2.3-2-4 3.8-1 2-4 3.3-0.7 6 0-1-1.7-2.5-3-2.7 1.2-5.5-0.5 1.8-0.6 3-2-2.4-0.4-3-2.5z"/>
	</g>
	<g>
		<path fill-rule="evenodd" class="s13" d="m179.5 21.5q3 0 6 0 0 15.5 0 31-3 0-6 0 0-15.5 0-31z"/>
	</g>
	<g>
		<path fill-rule="evenodd" class="s14" d="m55.5 20.5q1.7-1.3 4 0 3.5 3.5 0 7-1.6-1.3 0-2.5-0.9-0.7-2-0.5 2.4-3.4-2-4z"/>
	</g>
	<g>
		<path fill-rule="evenodd" class="s15" d="m193.5 21.5q-1.5 14.9-1 30-1-7.2-1-15 0-8.1 2-15z"/>
	</g>
	<g>
		<path fill-rule="evenodd" class="s16" d="m203.5 40.5q-2.1-1.4-5-1 0 6 0 12-3 0-6 0-0.5-15.1 1-30 10.2-2.6 19 3 4.4 7.3-2 13 3.2 6.2 5 13-3.9 1.7-8 0.5-1.9-5.3-4-10.5zm-4-13q0 3.5 0 7 3.7 0.3 6.5-2 1.3-3.3-1.5-5-2.5 0-5 0z"/>
	</g>
	<g>
		<path fill-rule="evenodd" class="s17" d="m275.5 30.5q-0.3 4.5 2 8-0.2 1.6 0.5 3 1.2-1.9 1.5-4 1.7-8.1 4-16 5.5 0 11 0 0.3 15 1 30-3.8 0.5-7-1 0.5-11-1-22-1.4 1.8-1 4-2.3 9.5-6 18.5-3.8 1.4-6.5-1.5-2.5-7.4-3.5-15 0.2-3.2-1.5-6-0.7 5-0.5 10 0 3.5 0 7-1.4 2.1-1 5-2.5 0-5 0 0-8 0-16 0-6.5 0-13 5.5 0 11 0 1 4.5 2 9z"/>
	</g>
	<g>
		<path fill-rule="evenodd" class="s18" d="m64.5 22.5q10.3-0.9 20 2.5 11.4 11.5 1 24-10.3 5.3-21.5 2.5-1.2-14.6 0.5-29zm7 6q0 9 0 18 2.5 0 5 0 2.6-0.9 4.5-3 4.7-9.9-4.5-15-2.5 0-5 0z"/>
	</g>
	<g>
		<path fill-rule="evenodd" class="s19" d="m6.5 18.5q2.5 1.7 5 0.5-2.5 1.5-5 3 3.2 0.1 5 2.5-3.2 1.8-7 2.5 7.6 1.5-1 1.5 0-1.5 0-3 0.3-4.1 3-7z"/>
	</g>
	<g>
		<path fill-rule="evenodd" class="s20" d="m224.5 23.5q4.9-0.4 9 2.5 5.4 5.4 8.5 12.5 4 6.4 10.5 3.5 4.3-6.4-1-12-6.1-0.8-9.5 4.5-5.2-4.6 0.5-8.5 11.3-6.2 16.5 5.5 3.5 14-10 18-11.4-3.4-15-15-2.8-4-7.5-5-3.4 0.6-4.5 4-2.2 7.5 5 10 4.3-1.3 7-5 2.8 2.5 2 6-11.5 10.9-19-3-3.1-12.2 7.5-18z"/>
	</g>
	<g>
		<path fill-rule="evenodd" class="s21" d="m148.5 25.5q0 3 0 6 2.5 0 5 0 0 2 0 4-2.5 0-5 0-0.5 5.3 1 10 0 1 1 1 2.2 1.9 2 5-3.5 0-7 0-3.4-1.2-3-5 0-5.5 0-11-1.5 0-3 0 0-2 0-4 1.5 0 3 0 0-2 0-4 2.4-2.4 6-2z"/>
	</g>
	<g>
		<path fill-rule="evenodd" class="s22" d="m11.5 24.5q1.2 2.6 4 4-2.8-0.6-6 0 1.7 1 3 2 0 0.5 0 1-3-2.1-5 1 0.1-2.2-2-3-1.9 1.1-4 1-0.1-3.1 2-5 0 1.5 0 3 8.6 0 1-1.5 3.8-0.7 7-2.5z"/>
	</g>
	<g>
		<path fill-rule="evenodd" class="s23" d="m57.5 24.5q1.1-0.2 2 0.5-1.6 1.2 0 2.5 2 1.5 0 3-1.6-0.1-3-1-1.4 0.7 0 2-2.2 2.2-4-0.5 3.6-1 0-3 1.4-0.9 2.5 0.5 1-1.9-0.5-3.5 1.4-0.7 3-0.5z"/>
	</g>
	<g>
		<path fill-rule="evenodd" class="s24" d="m76.5 28.5q-2.5 0-5 0 0 9 0 18 2.5 0 5 0-2.6 1.4-6 1 0-10 0-20 3.4-0.4 6 1z"/>
	</g>
	<g>
		<path fill-rule="evenodd" class="s25" d="m204.5 27.5q-2.5 0-5 0 0 3.5 0 7-1.5-3.7-1-8 3.4-0.4 6 1z"/>
	</g>
	<g>
		<path fill-rule="evenodd" class="s26" d="m42.5 22.5q-2.1 3.9 2 2 2.5 1.3 5 2.5 1.4 1.1 0.5 2.5-2.5-1.5-5-3-2.5 1-5.5 0-0.3 2.5 1 4.5-2.4 0-5-0.5 2.5-5 7-8z"/>
	</g>
	<g>
		<path fill-rule="evenodd" class="s27" d="m55.5 20.5q4.4 0.6 2 4-1.6-0.2-3 0.5 1.5 1.6 0.5 3.5-1.1-1.4-2.5-0.5 3.6 2 0 3 1.8 2.7 4 0.5 1.3 0.5 1 2 2 2.1-1 3-2.3 0.5-2 3 0 1-1 1-1.9 0.6-3.5 2-1.2-0.2-2-1-0.9 2.3-2.5 4-1.6-0.1-3-1-1.2 0.7-1 2-1.9-2.7-4.5-5-1-1 0-2 2.4 3.3 6.5 4 2.6 0.1 3-2.5-4.8-6.9 3-4.5-0.3 1.8 1 3 1.7-2.4 0.5-5-3.3-1.5-3.5-5-3-0.5-6-1-0.3 2.8 2 4.5-0.9 1.3-2.5 1.5-3.7-5.1-7.5-0.5 2.9 1.2 1 3.5-1.5-2-4-2-1 0-1-1 2.5-2.7 6-4 2.6 0.5 5 0.5-1.3-2-1-4.5 3 1 5.5 0 2.5 1.5 5 3 0.9-1.4-0.5-2.5-2.5-1.3-5-2.5-4.1 1.9-2-2 1.5-1.8 4-2 4.6-1.3 9 0z"/>
	</g>
	<g>
		<path fill-rule="evenodd" class="s28" d="m59.5 30.5q-1.6 1.3 0 2.5-0.9 0.7-2 0.5 0.3-1.5-1-2-1.4-1.3 0-2 1.4 0.9 3 1z"/>
	</g>
	<g>
		<path fill-rule="evenodd" class="s29" d="m105.5 47.5q3.2-0.3 6 1 0.3 2-1 3.5-23.7 3.8-15.5-18.5 17-9.4 18.5 10-6.8 1-12.5 0-0.8 0.8-1.5 1.5 3 1.4 6 2.5zm-6-10q3.2 1.5 7 1-3-5.1-7-1z"/>
	</g>
	<g>
		<path fill-rule="evenodd" class="s30" d="m123.5 32.5q-3.3-1-7 0-0.8-0.1-1-1 4.5-2.1 8 1z"/>
	</g>
	<g>
		<path fill-rule="evenodd" class="s31" d="m142.5 27.5q0 2 0 4-1.5 0-3 0 1.7-1.9 3-4z"/>
	</g>
	<g>
		<path fill-rule="evenodd" class="s32" d="m148.5 25.5q1.4 2.1 1 5 2.4-0.4 4 1-2.5 0-5 0 0-3 0-6z"/>
	</g>
	<g>
		<path fill-rule="evenodd" class="s33" d="m171.5 31.5q-0.1 2.3 2 3 1.5 7.2 1 15-2.1 2.7-6 2-0.9-1.6-2 0.5-12.5 3-10.5-9.5 4.4-5.3 11.5-5.5-1.6-1.5-4-1.5-3 0.5-6 1 0.1-2.1-1-4 7.3-3.3 15-1zm-9 13.5q2.1 4.6 5 0.5 0.3-2.5-2-3-2.1 0.5-3 2.5z"/>
	</g>
	<g>
		<path fill-rule="evenodd" class="s34" d="m288.5 50.5q-1-9-2-18-0.4-2.2 1-4 1.5 11 1 22z"/>
	</g>
	<g>
		<path fill-rule="evenodd" class="s35" d="m136.5 51.5q-3 0-6 0 0.5-6.8-1-13-3-4-6 0-1.5 6.2-1 13-3 0-6 0 0-9.5 0-19 3.7-1 7 0 0.2-0.9 1-1.5 5.6-1.4 10.5 1.5 2.1 9.3 1.5 19z"/>
	</g>
	<g>
		<path fill-rule="evenodd" class="s36" d="m171.5 31.5q2.1 0.7 2 3-2.1-0.7-2-3z"/>
	</g>
	<g>
		<path fill-rule="evenodd" class="s37" d="m270.5 34.5q-1 2-2 4-0.2-5 0.5-10 1.7 2.8 1.5 6z"/>
	</g>
	<g>
		<path fill-rule="evenodd" class="s38" d="m275.5 30.5q1.9 3.6 2 8-2.3-3.5-2-8z"/>
	</g>
	<g>
		<path fill-rule="evenodd" class="s39" d="m5.5 33.5q0.6 3.2 4 4-0.5 0.5-1 1-2.4-1.4-5-2-0.1-2.3 2-3z"/>
	</g>
	<g>
		<path fill-rule="evenodd" class="s40" d="m29.5 34.5q0 1 1 1 0.2 3.2-2 1-1.2 0.7-1 2-1.3-0.9-3-1 2.2-1.9 5-3z"/>
	</g>
	<g>
		<path fill-rule="evenodd" class="s41" d="m139.5 35.5q1.5 0 3 0 0 5.5 0 11-0.7-5.7-3-11z"/>
	</g>
	<g>
		<path fill-rule="evenodd" class="s42" d="m153.5 35.5q-1.6 1.4-4 1 0 4.5 0 9-1.5-4.7-1-10 2.5 0 5 0z"/>
	</g>
	<g>
		<path fill-rule="evenodd" class="s43" d="m56.5 36.5q-0.6 1.8-2 3-0.3-2.5 2-3z"/>
	</g>
	<g>
		<path fill-rule="evenodd" class="s44" d="m3.5 36.5q-0.4 2.2 0 5 2.3 1.4 5 1-3.2 3.5-8 2.5 3.7-2.9 0-5.5 0.6-2.6 3-3z"/>
	</g>
	<g>
		<path fill-rule="evenodd" class="s45" d="m41.5 46.5q1.2 0.4 2 1.5-5.3 0.2-9 3.5 0-4.6 1-9-2-0.3-3.5 1-4.6-0.4-4.5-5-0.2-1.3 1-2 2.2 2.2 2-1 2.5 0 4 2 1.9-2.3-1-3.5 3.8-4.6 7.5 0.5 1.6-0.2 2.5-1.5-2.3-1.7-2-4.5 3 0.5 6 1 0.2 3.5 3.5 5 1.2 2.6-0.5 5-1.3-1.2-1-3-7.8-2.4-3 4.5-0.4 2.6-3 2.5-4.1-0.7-6.5-4-1 1 0 2 2.6 2.3 4.5 5z"/>
	</g>
	<g>
		<path fill-rule="evenodd" class="s46" d="m99.5 37.5q3.2 1.5 7 1-3.8 2-8 0 0.2-0.9 1-1z"/>
	</g>
	<g>
		<path fill-rule="evenodd" class="s47" d="m279.5 37.5q-0.3 2.1-1.5 4-0.7-1.4-0.5-3 1-0.5 2-1z"/>
	</g>
	<g>
		<path fill-rule="evenodd" class="s48" d="m14.5 20.5q-0.8 0.1-1 1 1.1 1 2 2-1.3-0.2-2 1 1.7 1.9 3 0 6.4 6.3 4.5-3 1.1 1.3 2.5 2 0.1 0.8 1 1 4.7-1.3 9-3-5.1 4.8-12 7.5-5.8 7.5-13 13.5-2.7 0.4-5-1-0.4-2.8 0-5 2.6 0.6 5 2 0.5-0.5 1-1-3.4-0.8-4-4 0.5-1.3 2-1 2-3.1 5-1 2-0.5 0-1-1.3-1-3-2 3.2-0.6 6 0-2.8-1.4-4-4 1-1.7 0.5-4 1.5-1.9 2.5 0z"/>
	</g>
	<g>
		<path fill-rule="evenodd" class="s49" d="m15.5 23.5q0 1 1 1-1.3 1.9-3 0 0.7-1.2 2-1z"/>
	</g>
	<g>
		<path fill-rule="evenodd" class="s50" d="m129.5 38.5q1.5 6.2 1 13 3 0 6 0-3.2 1.5-7 1 0-7 0-14z"/>
	</g>
	<g>
		<path fill-rule="evenodd" class="s51" d="m24.5 37.5q1.7 0.1 3 1-0.1 4.6 4.5 5 1.5-1.3 3.5-1-1 4.4-1 9 0.2 1.3-1 2-1.5-1-3-2-0.1 1.5 1 2.5-1.4 0.7-3 0.5-1.3-3.6-3.5-7-0.6 3.3 1.5 6-1.1 1-2 2-3.7-1.4 0-2.5-1.7-0.4-3-1.5-1.8-4.1-3.5-8-0.7 3.5-0.5 7-3.8-0.3-6.5-1-0.3 1.9-1.5 3 0-2.5 0-5 4-3 7-7 3.3-3.1 8-3z"/>
	</g>
	<g>
		<path fill-rule="evenodd" class="s52" d="m165.5 42.5q1.1-1.4 3-1 0.4 2.4-1 4 0.3-2.5-2-3z"/>
	</g>
	<g>
		<path fill-rule="evenodd" class="s53" d="m203.5 40.5q-2 0-4 0 0.5 5.8-1 11 0-6 0-12 2.9-0.4 5 1z"/>
	</g>
	<g>
		<path fill-rule="evenodd" class="s54" d="m16.5 40.5q-3 4-7 7 2-5 7-7z"/>
	</g>
	<g>
		<path fill-rule="evenodd" class="s55" d="m53.5 40.5q-3.1 3.3-6 7-1.4 0.9-3 1 0.9-1.3 1-3 1.6-1.7 2.5-4 0.8 0.8 2 1 1.6-1.4 3.5-2z"/>
	</g>
	<g>
		<path fill-rule="evenodd" class="s56" d="m105.5 47.5q1.2-1 3-1 2.3 0.2 3 2-2.8-1.3-6-1z"/>
	</g>
	<g>
		<path fill-rule="evenodd" class="s57" d="m123.5 38.5q0 7 0 14-3.8 0.5-7-1 3 0 6 0-0.5-6.8 1-13z"/>
	</g>
	<g>
		<path fill-rule="evenodd" class="s58" d="m30.5 51.5q-4.3-4.1-4.5-10 1.5 2.5 3 5 1.8-3.2 3.5 1-2 1.5-2 4z"/>
	</g>
	<g>
		<path fill-rule="evenodd" class="s59" d="m150.5 46.5q1.5 0 3 0 0 3 0 6-4.3 0.5-8-1 3.5 0 7 0 0.2-3.1-2-5z"/>
	</g>
	<g>
		<path fill-rule="evenodd" class="s60" d="m9.5 47.5q0 2.5 0 5-1.2-0.4-2-1.5 0.9-2 2-3.5z"/>
	</g>
	<g>
		<path fill-rule="evenodd" class="s61" d="m262.5 34.5q0 8 0 16 2.5 0 5 0-0.4-2.9 1-5 0 3 0 6-3.5 0-7 0-0.5-8.8 1-17z"/>
	</g>
	<g>
		<path fill-rule="evenodd" class="s62" d="m42.5 50.5q-1.5 1.8-4 2 1.2-2.4 4-2z"/>
	</g>
	<g>
		<path fill-rule="evenodd" class="s63" d="m174.5 49.5q1.4 1.1 1 3-3.8 0.5-7-1 3.9 0.7 6-2z"/>
	</g>
	<g>
		<path fill-rule="evenodd" class="s64" d="m24.5 55.5q-4 0.8-9 0.5-4.1 0-6-3.5 1.2-1.1 1.5-3 2.7 0.7 6.5 1-0.2-3.5 0.5-7 1.7 3.9 3.5 8 1.3 1.1 3 1.5-3.7 1.1 0 2.5z"/>
	</g>
	<g>
		<path fill-rule="evenodd" class="s65" d="m45.5 45.5q-0.1 1.7-1 3-0.5 1.5-2 2-2.8-0.4-4 2-6.3 5.3-14 3 0.9-1 2-2-2.1-2.7-1.5-6 2.2 3.4 3.5 7 1.6 0.2 3-0.5-1.1-1-1-2.5 1.5 1 3 2 1.2-0.7 1-2 3.7-3.3 9-3.5-0.8-1.1-2-1.5-0.2-1.3 1-2 1.4 0.9 3 1z"/>
	</g>
</svg>